<svg xmlns="http://www.w3.org/2000/svg" width="155" height="51" fill="none"><path fill="#417F56" d="M1.854 12.399c0-.081.048-.122.143-.122.123 0 .318.08.585.238 2.482 1.532 5.705 2.299 9.667 2.299 2.426 0 4.79-.42 7.093-1.26.404-.152.823-.398 1.255-.739.359-.33.723-.657 1.092-.98l.042-.064c0-.109-.223-.195-.67-.258a5.882 5.882 0 0 0-.78-.111c-.172-.028-.366-.118-.58-.27-.24-.143-.366-.301-.38-.474v-.411c0-.679.304-1.419.912-2.22.609-.802 1.23-1.264 1.862-1.387.341.144.512.37.512.68 0 .137-.037.332-.111.585-.092.271-.206.419-.343.443-.281-.288-.466-.432-.554-.432-.228 0-.58.265-1.055.796-.47.528-.706.913-.706 1.155 0 .081.012.132.037.153.256.172.494.273.712.3.71.103 1.084.16 1.123.175.432.13.649.404.649.823 0 .668-.296 1.327-.886 1.977a5.27 5.27 0 0 1-1.814 1.229c-1.083.425-2.305.782-3.666 1.07-1.417.303-2.672.454-3.765.454-2.946 0-5.265-.325-6.956-.976-.383-.172-.622-.28-.717-.321-.64-.433-1.15-.793-1.53-1.082-.78-.668-1.17-1.091-1.17-1.27ZM23.44 3.433c.088-.57.228-.933.422-1.091.031.035.058.06.079.073.091.49.2 1.28.327 2.374.126 1.09.232 2.07.316 2.942.088.872.132 1.333.132 1.382 0 .102-.026.264-.08.485-.048.218-.152.366-.31.443l-.338-2.663a93.558 93.558 0 0 0-.358-2.605 48.658 48.658 0 0 1-.19-1.34ZM28.228 8.95c0-.289.125-.753.375-1.393.274-.626.51-1.05.706-1.276.468.246.802.466 1.002.66.275.28.412.644.412 1.09 0 .824-.281 1.41-.844 1.762-.042.07-.169.125-.38.164-.207.035-.369.053-.485.053-.25 0-.45-.116-.601-.348a1.406 1.406 0 0 1-.185-.712Zm.66-.486c0 .081.047.166.142.254.098.084.176.126.232.126h.163c.345 0 .568-.072.67-.216 0-.26-.09-.489-.269-.686-.179-.2-.381-.321-.606-.364-.222.384-.332.679-.332.886ZM31.013 13.216c0-.07.256-.177.77-.322.77-.253 1.299-.466 1.587-.638.538-.316.906-.68 1.102-1.091.036-.102.053-.16.053-.174 0-.447-.04-.81-.121-1.092-.042-.12-.208-.464-.496-1.034.046-.57.125-.912.237-1.028l.217.132c.204.316.32.492.348.527.13.144.31.25.538.316.28.113.462.152.543.116v1.092a2.448 2.448 0 0 1-.812-.095v.496c0 .654-.188 1.266-.565 1.835-.372.57-.854.976-1.445 1.218-1.304.04-1.956-.047-1.956-.258Z"/><path fill="#417F56" d="M35.58 8.928c.18.008.441-.065.786-.216.344-.15.55-.227.617-.227.13 0 .355.074.675.222.32.148.576.221.77.221v1.092c-.222 0-.489-.08-.802-.242-.313-.162-.527-.243-.643-.243-.053 0-.234.08-.543.243-.31.161-.565.242-.765.242h-.095V8.928Zm1.487 2.89c.165-.481.316-.747.454-.796.123.063.256.143.4.237.152.123.255.234.312.333-.11.555-.264.833-.464.833-.074 0-.208-.076-.401-.227a1.871 1.871 0 0 1-.3-.38Zm-1.266.486c0-.166.13-.435.39-.807.398.274.653.467.765.58v.037c0 .126-.035.281-.105.464-.081.193-.16.29-.237.29-.088 0-.247-.074-.475-.222-.225-.147-.338-.262-.338-.342Z"/><path fill="#417F56" d="M38.19 8.928c.57 0 1.18-.072 1.83-.216.703-.18 1.285-.399 1.746-.659-.9-.302-1.41-.454-1.53-.454-.15 0-.386.053-.706.159-.316.105-.56.158-.733.158.172-.605.274-.92.306-.944.091-.172.321-.355.69-.549.127-.07.303-.105.528-.105.095 0 .483.148 1.166.443.755.337 1.209.53 1.36.58.784.24 1.53.359 2.236.359.067.056.104.102.11.137 0 .13-.09.387-.273.77h-.18c-.478 0-.838-.037-1.08-.111l-.032.153.031.185c.144.144.357.216.638.216.422 0 .818-.04 1.187-.122v1.092l-1.155.021a.891.891 0 0 1-.696-.274.99.99 0 0 1-.27-.707c0-.045.008-.112.022-.2.018-.091.026-.162.026-.211v-.153c-.334 0-.724.076-1.17.227-.612.225-1.09.42-1.435.585-.675.274-1.081.43-1.218.464-.46.166-.886.248-1.276.248h-.122V8.928Zm2.685 2.875c.158-.556.323-.848.495-.876.11.014.254.072.433.174.225.144.337.267.337.37 0 .077-.037.212-.11.405-.07.176-.146.3-.227.37h-.053c-.137 0-.302-.048-.496-.143-.253-.077-.38-.177-.38-.3Z"/><path fill="#417F56" d="M45.036 5.511c.158-.555.323-.847.495-.875.11.014.254.072.433.174.225.144.337.267.337.369 0 .077-.037.213-.11.406-.07.176-.146.299-.227.37h-.053c-.137 0-.302-.048-.496-.143-.253-.078-.38-.178-.38-.3Zm.269 3.417c.488.008.764-.096.828-.31-.022-.089-.108-.254-.259-.496-.13-.204-.206-.375-.227-.512.081-.228.178-.483.29-.765h.048c.158 0 .31.227.453.68.152.398.227.71.227.94 0 .495-.079.866-.237 1.112-.19.295-.515.443-.976.443h-.147V8.928ZM46.301 12.225c.964-.06 1.532-.111 1.704-.153.51-.159 1.007-.473 1.492-.944.489-.472.82-.967.992-1.488a44.055 44.055 0 0 1-.475-.849c-.246-.464-.37-.768-.37-.912l.038-.116c.014-.028.06-.144.137-.348.06-.18.118-.269.174-.269.165 0 .36.24.585.722.229.419.343.733.343.944 0 1.403-.425 2.534-1.276 3.392-.4.386-.814.58-1.24.58-.253 0-.894-.09-1.924-.27a1.644 1.644 0 0 1-.18-.194v-.095Zm2.342-6.223c.158-.556.323-.848.496-.876.109.014.253.072.432.174.225.144.338.267.338.37 0 .077-.037.212-.111.405-.07.176-.146.3-.227.37h-.053c-.137 0-.302-.048-.495-.143-.254-.077-.38-.177-.38-.3Z"/><path fill="#417F56" d="M38.94 12.399c0-.081.047-.122.142-.122.123 0 .318.08.585.238 2.482 1.532 5.704 2.299 9.667 2.299 2.426 0 4.79-.42 7.093-1.26.404-.152.823-.398 1.255-.739.359-.33.722-.657 1.092-.98l.042-.064c0-.109-.223-.195-.67-.258a5.883 5.883 0 0 0-.78-.111c-.173-.028-.366-.118-.58-.27-.24-.143-.366-.301-.38-.474v-.411c0-.679.304-1.419.912-2.22.608-.802 1.229-1.264 1.862-1.387.34.144.511.37.511.68 0 .137-.037.332-.11.585-.092.271-.206.419-.343.443-.282-.288-.466-.432-.554-.432-.228 0-.58.265-1.055.796-.47.528-.706.913-.706 1.155 0 .081.012.132.036.153.257.172.494.273.712.3.71.103 1.085.16 1.124.175.432.13.648.404.648.823 0 .668-.295 1.327-.886 1.977a5.27 5.27 0 0 1-1.814 1.229c-1.083.425-2.304.782-3.665 1.07-1.417.303-2.672.454-3.765.454-2.947 0-5.265-.325-6.956-.976-.384-.172-.623-.28-.718-.321a35.53 35.53 0 0 1-1.529-1.082c-.78-.668-1.17-1.091-1.17-1.27ZM60.287 3.354c.102-.573.174-.932.217-1.076.094.085.16.236.195.454.045.098.079.257.1.474.358 2.627.541 3.998.548 4.114.102.686.181 1.074.238 1.165.158.296.46.443.907.443v1.092c-.633 0-1.018-.123-1.155-.369-.11-.151-.22-.496-.333-1.034-.031-.239-.082-.61-.152-1.112-.254-2.131-.442-3.514-.565-4.15Z"/><path fill="#417F56" d="M62.286 8.928c.285 0 .605-.045.96-.137.425-.102.724-.218.896-.348-.186-.404-.28-.63-.28-.68 0-.158.073-.35.217-.575.151-.264.24-.446.269-.548-.102-.064-.153-.176-.153-.338 0-.165.051-.351.153-.559.098-.246.216-.369.353-.369.433 0 .934.332 1.503.997.454.517.691.789.712.817.296.397.443.737.443 1.018 0 .13-.133.411-.4.844-.078.098-.219.147-.422.147-.69 0-1.206-.086-1.55-.258l-1.224.67c-.577.274-1.038.411-1.382.411h-.095V8.928Zm3.217-.69c.64.165 1.025.247 1.155.247.095 0 .142-.035.142-.105 0-.144-.163-.381-.49-.712a3.828 3.828 0 0 0-.702-.606c.06.386.025.778-.105 1.176Zm-1.308-.454c0 .08.014.125.042.132.218.12.438.165.66.137.238-.158.358-.323.358-.496a.82.82 0 0 0-.11-.411c-.078-.123-.178-.185-.301-.185-.11 0-.245.11-.406.327-.162.215-.243.38-.243.496Z"/><path fill="#417F56" d="M53.563 12.204c0-.053.04-.08.122-.08.101 0 .321.092.659.275 1.863.942 3.461 1.575 4.794 1.898 1.483.345 3.176.517 5.078.517 2.922 0 5.232-.27 6.93-.812 1.701-.538 2.992-1.556 3.87-3.054 0-.467-.147-.986-.442-1.555-.296-.57-.443-.886-.443-.95 0-.137.093-.443.28-.917-.015-.159.017-.238.094-.238.144 0 .364.385.66 1.155.302.735.453 1.23.453 1.482.123.978-.299 2.013-1.266 3.106-.963 1.097-2.507 1.908-4.63 2.432a28.136 28.136 0 0 1-5.39.543 35.72 35.72 0 0 1-3.929-.206c-1.663-.225-2.91-.554-3.739-.986-.489-.243-1.028-.607-1.619-1.092a13.823 13.823 0 0 0-.823-.69c-.439-.394-.659-.67-.659-.829ZM72.248 4.82c0-.07.077-.218.232-.443.155-.228.253-.343.295-.343.06 0 .208.062.443.185.254.144.38.262.38.353 0 .067-.072.208-.216.422-.13.246-.243.37-.338.37-.084 0-.239-.07-.464-.212-.221-.14-.332-.25-.332-.332ZM76.43 3.433c.088-.57.229-.933.422-1.091.032.035.058.06.08.073.09.49.2 1.28.326 2.374.127 1.09.232 2.07.317 2.942.087.872.131 1.333.131 1.382 0 .102-.026.264-.079.485-.049.218-.153.366-.31.443l-.338-2.663a92.812 92.812 0 0 0-.36-2.605 48.846 48.846 0 0 1-.189-1.34ZM77.385 12.225c.963-.06 1.53-.111 1.703-.153.51-.159 1.007-.473 1.493-.944.488-.472.819-.967.991-1.488a44.055 44.055 0 0 1-.475-.849c-.246-.464-.369-.768-.369-.912l.037-.116c.014-.028.06-.144.137-.348.06-.18.118-.269.174-.269.166 0 .36.24.586.722.228.419.342.733.342.944 0 1.403-.425 2.534-1.276 3.392-.4.386-.814.58-1.24.58-.252 0-.894-.09-1.924-.27a1.653 1.653 0 0 1-.18-.194v-.095ZM81.978 12.135c.028-.021.08-.032.158-.032h.533c.749 0 1.257-.035 1.524-.105.352-.116.782-.39 1.292-.823.534-.44.863-.824.986-1.155-.597 0-.995-.04-1.192-.121-.358-.12-.537-.426-.537-.918 0-.31.115-.657.347-1.044.25-.432.502-.649.755-.649.186 0 .399.227.638.68.221.352.369.672.443.96h.28v1.092h-.391c-.05.489-.325 1.036-.828 1.64-.513.57-1.007.94-1.482 1.113-.425-.07-.912-.156-1.46-.258-.71-.159-1.066-.285-1.066-.38Zm3.328-3.412a.853.853 0 0 0 .559.205.53.53 0 0 0 .132-.02.713.713 0 0 0-.08-.322c-.077-.144-.163-.217-.258-.217-.172 0-.29.118-.353.354Z"/><path fill="#417F56" d="M87.02 8.928c.179.008.44-.065.785-.216.345-.15.55-.227.617-.227.13 0 .356.074.675.222.32.148.577.221.77.221v1.092c-.221 0-.488-.08-.801-.242-.313-.162-.528-.243-.644-.243-.052 0-.233.08-.543.243-.31.161-.564.242-.764.242h-.095V8.928Zm1.265-3.021c.166-.482.317-.747.454-.797.123.064.257.143.4.238.152.123.256.233.312.332-.11.555-.264.833-.464.833-.074 0-.208-.075-.401-.227a1.87 1.87 0 0 1-.3-.38Zm-1.265.485c0-.165.13-.434.39-.807.397.274.652.468.765.58v.037c0 .127-.035.281-.106.464-.08.193-.16.29-.237.29-.088 0-.246-.074-.475-.221-.225-.148-.337-.262-.337-.343Z"/><path fill="#417F56" d="M89.63 8.928c.5 0 .976-.058 1.43-.174.674-.158 1.066-.385 1.175-.68.11-.295.21-.478.301-.548.032.02.047.068.047.142 0 .229-.065.534-.195.918a.785.785 0 0 0 .259.052c.735 0 1.246-.109 1.534-.327.18-.144.317-.381.412-.712.091-.316.234-.513.427-.59l.026.042a.13.13 0 0 1 .021.074c0 .109-.047.373-.142.79.102.16.206.256.311.291l.464.105.275-.105a.679.679 0 0 0-.048-.237.728.728 0 0 1-.042-.185c0-.042.047-.207.142-.496.123-.33.185-.506.185-.527.077 0 .156.121.237.364.07.193.106.351.106.474 0 .426-.076.81-.227 1.155-.2.454-.489.68-.865.68-.186 0-.503-.135-.95-.405-.108.263-.363.467-.764.611-.31.102-.638.153-.986.153-.345 0-.665-.05-.96-.153-.682.254-1.319.38-1.91.38h-.263V8.928ZM96.38 12.225c.964-.06 1.532-.111 1.704-.153.51-.159 1.007-.473 1.492-.944.489-.472.82-.967.992-1.488a44.64 44.64 0 0 1-.475-.849c-.246-.464-.369-.768-.369-.912l.037-.116c.014-.028.06-.144.137-.348.06-.18.118-.269.174-.269.165 0 .361.24.586.722.228.419.342.733.342.944 0 1.403-.425 2.534-1.276 3.392-.4.386-.814.58-1.24.58-.252 0-.894-.09-1.924-.27a1.653 1.653 0 0 1-.18-.194v-.095ZM22.294 39.052h-1.755c-2.246 0-4.207-.69-5.882-2.073-1.568-1.29-2.685-3.017-3.35-5.184-.292-.957-.936-1.436-1.933-1.436-.585 0-1.083.2-1.495.599a1.916 1.916 0 0 0-.599 1.435c0 .572.2 1.063.599 1.475.412.4.91.599 1.495.599h3.21v4.585h-2.99c-1.862 0-3.47-.631-4.826-1.894-1.342-1.263-2.013-2.85-2.013-4.765 0-1.82.644-3.376 1.934-4.665 1.289-1.29 2.85-1.934 4.685-1.934 1.422 0 2.725.438 3.908 1.316 1.183.864 1.993 1.98 2.432 3.35.824 2.67 2.432 4.007 4.825 4.007h1.755v4.585Z"/><path fill="#417F56" d="M30.986 22.105h-2.273c-.624 0-1.163-.219-1.614-.658a2.205 2.205 0 0 1-.678-1.615c0-.624.226-1.163.678-1.615.451-.451.99-.677 1.614-.677a2.14 2.14 0 0 1 1.595.677c.452.452.678.99.678 1.615v2.273Zm7.856 16.947h-1.775c-1.847 0-3.548-.565-5.104-1.694v1.694H20.54v-4.585h6.859v-8.534h4.565v2.851c0 1.635.472 2.991 1.416 4.068.944 1.076 2.173 1.615 3.688 1.615h1.775v4.585Z"/><path fill="#417F56" d="M55.23 39.052h-1.774c-1.847 0-3.549-.565-5.104-1.694v1.694H36.928v-4.585h6.858v-8.534h4.566v2.851c0 1.635.472 2.991 1.416 4.068.944 1.076 2.173 1.615 3.688 1.615h1.775v4.585Zm-3.748 8.115H49.17a2.205 2.205 0 0 1-1.615-.678 2.238 2.238 0 0 1-.658-1.615c0-.638.219-1.176.658-1.615.452-.438.99-.658 1.615-.658.638 0 1.183.22 1.634.658.453.439.678.977.678 1.615v2.293Zm-5.183 0h-2.293a2.228 2.228 0 0 1-1.635-.678 2.238 2.238 0 0 1-.658-1.615c0-.638.22-1.176.658-1.615a2.262 2.262 0 0 1 1.635-.658c.624 0 1.163.22 1.615.658.452.439.678.977.678 1.615v2.293Z"/><path fill="#417F56" d="M75.966 39.052h-22.65v-4.585h17.825a5.753 5.753 0 0 0-2.074-2.871c-.983-.745-2.113-1.117-3.389-1.117l-6.799.02v-4.566h6.8c2.83 0 5.25 1.004 7.256 3.01 2.02 1.995 3.031 4.414 3.031 7.258v2.851ZM64.282 23.581H62.01c-.625 0-1.163-.22-1.615-.658a2.205 2.205 0 0 1-.678-1.615c0-.625.226-1.163.678-1.615.451-.452.99-.678 1.614-.678a2.14 2.14 0 0 1 1.596.678c.452.452.677.99.677 1.615v2.273Z"/><path fill="#417F56" d="M90.41 39.052h-1.775c-1.834 0-3.535-.565-5.104-1.694v1.096c0 2.871-1.036 5.297-3.11 7.277-2.06 1.994-4.639 2.991-7.736 2.991v-4.566c1.848 0 3.356-.551 4.526-1.654 1.183-1.104 1.775-2.453 1.775-4.048v-12.52h4.545v2.85c0 1.635.472 2.991 1.416 4.068.957 1.076 2.186 1.615 3.688 1.615h1.775v4.585Z"/><path fill="#417F56" d="M100.06 39.052H88.635v-4.585h6.86v-8.534h4.565v13.12Zm.199-17.266h-2.313a2.205 2.205 0 0 1-1.614-.678 2.239 2.239 0 0 1-.658-1.615c0-.638.219-1.176.657-1.614.452-.44.99-.659 1.615-.659.638 0 1.183.22 1.635.659.452.438.678.976.678 1.614v2.293Zm-5.184 0h-2.293a2.228 2.228 0 0 1-1.634-.678 2.239 2.239 0 0 1-.658-1.615c0-.638.219-1.176.658-1.614a2.262 2.262 0 0 1 1.635-.659c.624 0 1.163.22 1.614.659.452.438.678.976.678 1.614v2.293ZM124.47 30.718c-1.346-.571-2.692-.99-3.917-1.938 1.103-.061 1.944.459 2.875.673-1.326-1.091-2.743-2.06-3.776-3.479 1.093.725 2.187 1.439 3.28 2.163.03-.03.061-.05.081-.081l-2.207-2.316.091-.153c.304.163.658.265.901.5.982.928 1.923 1.897 2.875 2.856.253.255.476.52.759.827.203-.194.354-.357.516-.49.284-.214.233-.418.061-.684-1.265-1.918-2.946-3.407-4.899-4.54-1.498-.867-3.118-1.52-4.677-2.275-.668-.326-1.326-.673-1.994-1.01.03-.081.051-.163.081-.245.496.102 1.002.194 1.61.317-.962-.827-2.045-1.367-2.653-2.418.031-.04.051-.092.081-.133 1.215.755 2.42 1.51 3.766 2.347-.901-1.235-1.711-2.337-2.51-3.438.04-.041.081-.082.131-.123.415.408.85.786 1.235 1.214 1.033 1.163 2.004 2.387 3.077 3.5.496.51 1.175.836 1.762 1.254.799.562 1.589 1.133 2.459 1.755-.06-.183-.081-.306-.141-.398-1.67-2.836-3.503-5.57-5.831-7.916-.405-.409-.951-.704-1.478-.95-.901-.407-1.852-.713-2.773-1.07-.557-.215-1.104-.46-1.488-.95.02-.06.04-.111.06-.173.8.204 1.61.419 2.41.623-1.569-1.429-3.28-2.714-4.333-4.632 1.427 1.183 2.855 2.367 4.272 3.56.04-.03.081-.071.111-.102a739.073 739.073 0 0 1-2.298-3.315l.152-.153c.243.204.527.377.719.622.83 1.081 1.589 2.234 2.47 3.285.749.888 1.64 1.663 2.419 2.52.719.786 1.377 1.622 2.055 2.438l.314.378c.04-.02.081-.041.131-.072-.131-.306-.263-.622-.405-.918-.668-1.398-1.255-2.856-2.044-4.183-1.073-1.795-2.389-3.417-4.08-4.682-.435-.327-.992-.47-1.508-.684-.769-.326-1.599-.54-2.227-1.255.911-.214 1.64.398 2.602.551-.841-.918-2.075-1.255-2.48-2.397.04-.062.07-.113.111-.174.395.225.8.46 1.265.725-.364-.653-.698-1.245-1.022-1.847l.091-.092c.213.174.456.316.617.52 1.043 1.316 2.045 2.663 3.098 3.959a55.716 55.716 0 0 0 2.915 3.305c-.364-.847-.698-1.703-1.103-2.53-.506-1.05-.881-2.173-1.731-3.02a269.38 269.38 0 0 1-3.421-3.458 5.238 5.238 0 0 1-.831-1.143c1.367.653 2.298 1.837 3.392 2.826.04-.03.081-.05.121-.081a607.992 607.992 0 0 0-1.863-3.816c.051-.03.112-.071.162-.102.982 1.47 1.974 2.938 2.956 4.407.031-.01.071-.02.101-.03-.192-1.051-.384-2.092-.566-3.143.06-.02.121-.04.182-.05.081.214.182.418.222.642.193.949.304 1.918.577 2.836.355 1.163.83 2.286 1.286 3.408.253.632.577 1.244.952 1.857.04-1.929-.537-3.826-.314-5.754.06-.01.111-.02.172-.041.172.459.334.918.506 1.377h.091c.152-.836.304-1.683.476-2.601.486.346.455.734.415 1.091-.172 1.48-.365 2.959-.547 4.428a.95.95 0 0 0 .051.439c.557-.929.769-2.03 1.518-2.826.051.01.101.03.142.04-.01.153.01.317-.041.45-.253.775-.506 1.54-.789 2.305-.466 1.245-.719 2.52-.496 3.836.121.704.445 1.377.739 2.04a228.09 228.09 0 0 0 2.277 5.05c.355.765.76 1.5 1.144 2.255.061-.01.112-.03.172-.04-.071-.409-.111-.827-.202-1.235-.233-.98-.496-1.959-.739-2.938-.233-.919-.486-1.827-.678-2.755-.112-.55-.132-1.122-.193-1.683.071-.02.132-.03.203-.051.253.602.516 1.214.82 1.948l.475-2.877c.051 0 .102.01.142.01.071 1.245.142 2.5.223 3.745.04.01.081.01.131.02.355-.796.446-1.724 1.266-2.316-.061.367-.101.725-.182 1.092-.294 1.316-.689 2.622-.881 3.958-.101.735.111 1.51.223 2.265.151.99.172 2.05.567 2.928.678 1.5 1.609 2.877 2.469 4.377.253-.245.395-.398.557-.541.243-.214.243-.418.122-.714a91.672 91.672 0 0 1-1.276-3.142c-.121-.327-.142-.684-.202-1.03.06-.021.111-.052.172-.072.344.653.698 1.296 1.123 2.091-.081-1.612-.485-3.08-.05-4.56.587.949.384 2.102.789 3.234.233-.826.436-1.54.638-2.275.506.143.506.459.435.785-.192.96-.415 1.918-.607 2.877-.081.429-.111.868-.152 1.306-.01.102.071.204.132.398l6.61-6.54c-1.124-1.264-1.498-2.713-1.134-4.294.142-.602.456-1.235.871-1.684 3.907-4.295 7.855-8.56 11.792-12.834.041-.05.102-.082.152-.122.678.387.769.877.284 1.438-2.976 3.448-5.963 6.897-8.928 10.355-.203.235-.476.49-.152.837.273.285.809.347 1.113.081.425-.387.82-.806 1.225-1.214 2.865-2.928 5.739-5.856 8.604-8.784.122-.122.213-.265.314-.377.759.408.86.898.344 1.49a8025.567 8025.567 0 0 0-8.827 10.232c-.243.276-.627.561-.192.98.314.305.86.255 1.225-.113 1.68-1.714 3.35-3.448 5.051-5.152 1.68-1.673 3.381-3.315 5.112-4.999.556.286.668.816.192 1.367-2.956 3.418-5.911 6.846-8.867 10.274-.223.255-.638.51-.243.938.324.357.86.337 1.265-.06a678.044 678.044 0 0 0 3.776-3.847c1.974-2.02 3.948-4.05 5.932-6.07.121-.123.243-.225.475-.45.203.409.375.756.547 1.113-1.184 1.285-2.338 2.55-3.492 3.805-2.743 2.98-5.517 5.928-8.21 8.947-1.65 1.857-4.221 1.898-5.79.347-.05-.05-.101-.081-.192-.153-.162.194-.334.378-.486.572-1.458 1.744-2.915 3.489-4.373 5.213-.223.265-.283.49-.162.826.243.704.425 1.428.648 2.143.041.142.121.275.233.408.162-1.163-.273-2.357.273-3.612.142.49.304.867.354 1.255.132 1.112.183 2.224.334 3.336.203 1.48.496 2.949 1.367 4.214.779 1.142 1.518 2.326 2.348 3.438.355.48.861.857 1.326 1.244 1.094.908 2.197 1.796 3.3 2.694.102.081.213.132.365.224-1.104-1.326-2.217-2.57-3.229-3.897-1.012-1.316-2.146-2.55-2.845-4.08l.162-.134c.709.847 1.417 1.684 2.207 2.612a690.84 690.84 0 0 1-1.599-3.917c.06-.031.121-.051.182-.082.81 1.56 1.468 3.214 2.601 4.59l-.546-3.57c.698.51.739 1.255.901 1.939.172.755.313 1.52.455 2.285.213 1.122.628 2.132 1.458 2.958 1.103 1.112 2.085 2.388 3.29 3.377 1.235 1.01 2.652 1.796 4.028 2.622 1.073.633 2.207 1.173 3.31 1.745a.407.407 0 0 1 .233.265c-.688-.286-1.417-.52-2.075-.867-1.792-.96-3.543-2.01-5.345-2.959-1.71-.898-3.431-1.826-5.233-2.52-.992-.377-2.156-.306-3.239-.398-.79-.071-1.579-.06-2.369-.132-.273-.02-.536-.163-.799-.337.87-.51 1.801-.214 2.712-.377l-3.846-1.194c.01-.061.02-.112.04-.173.476-.276.972-.143 1.468-.031.476.102.952.235 1.458.245-1.195-.735-2.389-1.48-3.584-2.214 1.245.122 2.298.704 3.361 1.255 1.235.653 2.44 1.377 3.675 2.04.526.276 1.093.48 1.639.714.031-.04.051-.081.081-.122-.374-.316-.749-.622-1.123-.949-2.42-2.122-5.183-3.703-8.068-5.06-.719-.337-1.599-.337-2.409-.51-.79-.163-1.579-.316-2.359-.51-.243-.061-.465-.235-.779-.398.779-.47 1.488-.01 2.318-.092-.86-.449-1.609-.826-2.389-1.224-.779.928-1.549 1.846-2.318 2.765-3.3 3.958-6.6 7.906-9.9 11.865-.82.979-1.862 1.316-3.087.99-1.245-.338-1.944-1.205-2.197-2.47-.263-1.306.091-2.367 1.053-3.315 4.666-4.581 9.303-9.182 13.949-13.783.071-.184.202-.337.384-.52Zm7.38-1.948c-.648.765-1.235 1.438-1.792 2.142-.091.112-.091.388-.02.53a15.45 15.45 0 0 0 2.794 3.96c.303.315.567.672.86.989.364.398.759.765 1.144 1.153.061-.051.121-.092.182-.143-.526-.929-1.053-1.867-1.589-2.796-.739-1.285-1.498-2.57-2.217-3.866-.132-.235-.121-.561-.182-.847l.212-.092c.446.724.901 1.449 1.347 2.163.04-.02.071-.03.111-.051-.263-1-.547-2.02-.85-3.142Zm-4.13 4.938c1.953 2.173 4.444 3.376 6.954 4.57-2.035-1.846-3.725-4.08-6.215-5.468-.243.306-.486.602-.739.898Z"/></svg>